<svg xmlns="http://www.w3.org/2000/svg" width="32" height="32" viewBox="0 0 32 32" fill="none">
  <!-- Warm cream circle with gold border -->
  <circle cx="16" cy="16" r="15.5" fill="url(#creamBg)" stroke="url(#goldBorder)" stroke-width="1"/>
  <!-- Simplified woven "F" motif in gold — inspired by the logo monogram -->
  <path d="M16 7
    C14 7 12 8.5 11 10.5
    C10 12.5 10.5 14 12 15
    C10.5 16 10 17.5 11 19.5
    C12 21.5 14 23 16 23
    C18 23 20 21.5 21 19.5
    C22 17.5 21.5 16 20 15
    C21.5 14 22 12.5 21 10.5
    C20 8.5 18 7 16 7Z"
    fill="none" stroke="url(#goldStroke)" stroke-width="1.4" stroke-linecap="round"/>
  <!-- Center ribbon cross -->
  <path d="M12.5 15 Q16 13.5 19.5 15 Q16 16.5 12.5 15Z" fill="url(#goldFill)" opacity="0.8"/>
  <!-- "F" letterform hint -->
  <path d="M14 10 L14 22 M14 15 L18.5 15 M14 10 L18.5 10"
    stroke="url(#goldStroke)" stroke-width="1.8" stroke-linecap="round" stroke-linejoin="round" fill="none"/>
  <defs>
    <radialGradient id="creamBg" cx="40%" cy="35%" r="65%">
      <stop offset="0%" stop-color="#FFFDF8"/>
      <stop offset="100%" stop-color="#FAF0E3"/>
    </radialGradient>
    <linearGradient id="goldBorder" x1="0" y1="0" x2="32" y2="32" gradientUnits="userSpaceOnUse">
      <stop offset="0%" stop-color="#D4B77A"/>
      <stop offset="50%" stop-color="#C9A86C"/>
      <stop offset="100%" stop-color="#8A6B3A"/>
    </linearGradient>
    <linearGradient id="goldStroke" x1="11" y1="7" x2="21" y2="23" gradientUnits="userSpaceOnUse">
      <stop offset="0%" stop-color="#D4B77A"/>
      <stop offset="50%" stop-color="#C9A86C"/>
      <stop offset="100%" stop-color="#8A6B3A"/>
    </linearGradient>
    <linearGradient id="goldFill" x1="12.5" y1="15" x2="19.5" y2="15" gradientUnits="userSpaceOnUse">
      <stop offset="0%" stop-color="#C9A86C"/>
      <stop offset="50%" stop-color="#EDD69E"/>
      <stop offset="100%" stop-color="#C9A86C"/>
    </linearGradient>
  </defs>
</svg>
